<?xml version="1.0" encoding="utf-8"?>
<!-- Generator: Adobe Illustrator 26.0.2, SVG Export Plug-In . SVG Version: 6.00 Build 0)  -->
<!DOCTYPE svg [
	<!ENTITY ns_extend "http://ns.adobe.com/Extensibility/1.0/">
	<!ENTITY ns_ai "http://ns.adobe.com/AdobeIllustrator/10.0/">
	<!ENTITY ns_graphs "http://ns.adobe.com/Graphs/1.0/">
	<!ENTITY ns_vars "http://ns.adobe.com/Variables/1.0/">
	<!ENTITY ns_imrep "http://ns.adobe.com/ImageReplacement/1.0/">
	<!ENTITY ns_sfw "http://ns.adobe.com/SaveForWeb/1.0/">
	<!ENTITY ns_custom "http://ns.adobe.com/GenericCustomNamespace/1.0/">
	<!ENTITY ns_adobe_xpath "http://ns.adobe.com/XPath/1.0/">
]>
<svg version="1.2" baseProfile="tiny" id="Слой_1" xmlns:x="&ns_extend;" xmlns:i="&ns_ai;" xmlns:graph="&ns_graphs;"
	 xmlns="http://www.w3.org/2000/svg" xmlns:xlink="http://www.w3.org/1999/xlink" x="0px" y="0px" viewBox="0 0 173.6 173.6"
	 overflow="visible" xml:space="preserve">
<metadata>
	<sfw  xmlns="&ns_sfw;">
		<slices></slices>
		<sliceSourceBounds  bottomLeftOrigin="true" height="16383" width="173.6" x="272.8" y="-8490"></sliceSourceBounds>
	</sfw>
</metadata>
<path fill-rule="evenodd" fill="#EE2E24" d="M40.4,148.8h25.1c5,0,9.7-2.3,12.7-6.2L151.8,48c0.5-0.6-0.3-1.3-0.9-0.8L40.4,148.8z"
	/>
<linearGradient id="SVGID_1_" gradientUnits="userSpaceOnUse" x1="-1.373465e-05" y1="86.811" x2="151.231" y2="86.811">
	<stop  offset="0" style="stop-color:#D1D1CF"/>
	<stop  offset="0.9439" style="stop-color:#828487"/>
	<stop  offset="1" style="stop-color:#7E8083"/>
</linearGradient>
<path fill-rule="evenodd" fill="url(#SVGID_1_)" d="M101.4,57L85.4,6.7c-1.3-4-5-6.8-9.3-6.7L49,0L0,173.6L151.1,42.3
	c0.4-0.4-0.1-1-0.5-0.7L50.2,105.4l16.4-59.2l9.8,30.9c0.1,0.2,0.3,0.3,0.5,0.2l22.1-14C101.2,62,102.1,59.4,101.4,57z"/>
<path fill-rule="evenodd" fill="#1268B3" d="M95.2,132.7l3.3,10.3c1.1,3.4,4.3,5.8,7.9,5.8h24.8l-14.5-45.9l-21,27
	C95.1,130.7,94.9,131.7,95.2,132.7z"/>
<path fill-rule="evenodd" fill="#EE2E24" d="M172.8,24.8l-28.2,7.8c-0.7,0.2-0.5,1.2,0.2,1.2l19-1.4c0.4,0,0.7,0.3,0.7,0.6v9.2
	c0,0.7,0.9,0.8,1.2,0.3l7.9-16.9C173.8,25.2,173.3,24.7,172.8,24.8z"/>
</svg>
