<svg width="33" height="33" viewBox="0 0 33 33" fill="none" xmlns="http://www.w3.org/2000/svg">
<g clip-path="url(#clip0_17_2)">
<path d="M16.94 8.04013C15.9511 8.04013 14.9844 8.33338 14.1622 8.88278C13.3399 9.43219 12.6991 10.2131 12.3206 11.1267C11.9422 12.0403 11.8432 13.0457 12.0361 14.0156C12.229 14.9855 12.7052 15.8764 13.4045 16.5757C14.1037 17.2749 14.9947 17.7511 15.9646 17.9441C16.9345 18.137 17.9398 18.038 18.8534 17.6595C19.7671 17.2811 20.548 16.6402 21.0974 15.818C21.6468 14.9957 21.94 14.029 21.94 13.0401C21.94 11.714 21.4132 10.4423 20.4756 9.5046C19.5379 8.56691 18.2661 8.04013 16.94 8.04013ZM16.94 16.0401C16.3467 16.0401 15.7667 15.8642 15.2733 15.5345C14.78 15.2049 14.3954 14.7364 14.1684 14.1882C13.9413 13.64 13.8819 13.0368 13.9977 12.4549C14.1134 11.8729 14.3991 11.3384 14.8187 10.9188C15.2383 10.4993 15.7728 10.2135 16.3547 10.0978C16.9367 9.98202 17.5399 10.0414 18.0881 10.2685C18.6362 10.4956 19.1048 10.8801 19.4344 11.3734C19.7641 11.8668 19.94 12.4468 19.94 13.0401C19.9391 13.8355 19.6228 14.598 19.0603 15.1605C18.4979 15.7229 17.7354 16.0392 16.94 16.0401Z" fill="black"/>
<path d="M16.94 2.04013C14.1711 2.04013 11.4643 2.86122 9.16204 4.39956C6.85975 5.9379 5.06534 8.1244 4.00571 10.6826C2.94608 13.2407 2.66884 16.0557 3.20903 18.7714C3.74922 21.4871 5.08259 23.9817 7.04053 25.9396C8.99846 27.8976 11.493 29.2309 14.2088 29.7711C16.9245 30.3113 19.7394 30.0341 22.2976 28.9744C24.8558 27.9148 27.0423 26.1204 28.5806 23.8181C30.1189 21.5158 30.94 18.8091 30.94 16.0401C30.9358 12.3284 29.4595 8.76986 26.8349 6.14525C24.2103 3.52065 20.6518 2.04431 16.94 2.04013ZM10.94 26.4166V25.0401C10.9409 24.2447 11.2572 23.4822 11.8197 22.9198C12.3821 22.3574 13.1446 22.041 13.94 22.0401H19.94C20.7354 22.041 21.498 22.3574 22.0604 22.9198C22.6228 23.4822 22.9391 24.2447 22.94 25.0401V26.4166C21.1192 27.4798 19.0485 28.0401 16.94 28.0401C14.8315 28.0401 12.7609 27.4798 10.94 26.4166ZM24.9325 24.9659C24.9126 23.6542 24.3782 22.4028 23.4443 21.4814C22.5104 20.56 21.2519 20.0424 19.94 20.0401H13.94C12.6281 20.0424 11.3696 20.56 10.4357 21.4814C9.50187 22.4028 8.9674 23.6542 8.94752 24.9659C7.13409 23.3467 5.85525 21.2148 5.28036 18.8526C4.70546 16.4904 4.86162 14.0093 5.72816 11.7378C6.5947 9.46631 8.13074 7.5116 10.1329 6.1325C12.135 4.7534 14.5089 4.01496 16.94 4.01496C19.3712 4.01496 21.745 4.7534 23.7472 6.1325C25.7493 7.5116 27.2853 9.46631 28.1519 11.7378C29.0184 14.0093 29.1746 16.4904 28.5997 18.8526C28.0248 21.2148 26.746 23.3467 24.9325 24.9659Z" fill="black"/>
</g>
<defs>
<clipPath id="clip0_17_2">
<rect width="32" height="32" fill="white" transform="translate(0.940018 0.0401306)"/>
</clipPath>
</defs>
</svg>
