<svg width="25" height="25" viewBox="0 0 25 25" fill="none" xmlns="http://www.w3.org/2000/svg">
<g clip-path="url(#clip0_43_2)">
<path d="M12.4409 15.9395C14.512 15.9395 16.1909 14.2606 16.1909 12.1895C16.1909 10.1184 14.512 8.43951 12.4409 8.43951C10.3699 8.43951 8.69093 10.1184 8.69093 12.1895C8.69093 14.2606 10.3699 15.9395 12.4409 15.9395Z" stroke="black" stroke-width="1.5" stroke-linecap="round" stroke-linejoin="round"/>
<path d="M6.42218 19.6305C6.98647 18.519 7.84752 17.5855 8.90988 16.9334C9.97223 16.2813 11.1944 15.9361 12.4409 15.9361C13.6875 15.9361 14.9096 16.2813 15.972 16.9334C17.0343 17.5855 17.8954 18.519 18.4597 19.6305" stroke="black" stroke-width="1.5" stroke-linecap="round" stroke-linejoin="round"/>
<path d="M16.9409 6.18951H21.4409" stroke="black" stroke-width="1.5" stroke-linecap="round" stroke-linejoin="round"/>
<path d="M19.1909 3.93951V8.43951" stroke="black" stroke-width="1.5" stroke-linecap="round" stroke-linejoin="round"/>
<path d="M21.3162 11.4395C21.6327 13.3195 21.3434 15.2515 20.4902 16.9563C19.637 18.6612 18.2641 20.0509 16.5696 20.9246C14.8752 21.7983 12.9469 22.1108 11.0632 21.8172C9.17948 21.5235 7.43786 20.6387 6.0898 19.2907C4.74174 17.9426 3.85699 16.201 3.5633 14.3173C3.26961 12.4336 3.58219 10.5053 4.45589 8.81083C5.3296 7.11637 6.71922 5.74343 8.42411 4.89025C10.129 4.03707 12.0609 3.7478 13.9409 4.06421" stroke="black" stroke-width="1.5" stroke-linecap="round" stroke-linejoin="round"/>
</g>
<defs>
<clipPath id="clip0_43_2">
<rect width="24" height="24" fill="white" transform="translate(0.440933 0.939514)"/>
</clipPath>
</defs>
</svg>
