<svg width="22" height="22" viewBox="0 0 22 22" fill="none" xmlns="http://www.w3.org/2000/svg">
<path d="M8.46992 14.2799C8.27992 14.2799 8.08992 14.2099 7.93992 14.0599C7.11992 13.2399 6.66992 12.1499 6.66992 10.9999C6.66992 8.60992 8.60992 6.66992 10.9999 6.66992C12.1499 6.66992 13.2399 7.11992 14.0599 7.93992C14.1999 8.07992 14.2799 8.26992 14.2799 8.46992C14.2799 8.66992 14.1999 8.85992 14.0599 8.99992L8.99992 14.0599C8.84992 14.2099 8.65992 14.2799 8.46992 14.2799ZM10.9999 8.16992C9.43992 8.16992 8.16992 9.43992 8.16992 10.9999C8.16992 11.4999 8.29992 11.9799 8.53992 12.3999L12.3999 8.53992C11.9799 8.29992 11.4999 8.16992 10.9999 8.16992Z" fill="#212121"/>
<path d="M4.59984 17.51C4.42984 17.51 4.24984 17.45 4.10984 17.33C3.03984 16.42 2.07984 15.3 1.25984 14C0.199844 12.35 0.199844 9.65998 1.25984 7.99998C3.69984 4.17998 7.24984 1.97998 10.9998 1.97998C13.1998 1.97998 15.3698 2.73998 17.2698 4.16998C17.5998 4.41998 17.6698 4.88998 17.4198 5.21998C17.1698 5.54998 16.6998 5.61998 16.3698 5.36998C14.7298 4.12998 12.8698 3.47998 10.9998 3.47998C7.76984 3.47998 4.67984 5.41998 2.51984 8.80998C1.76984 9.97998 1.76984 12.02 2.51984 13.19C3.26984 14.36 4.12984 15.37 5.07984 16.19C5.38984 16.46 5.42984 16.93 5.15984 17.25C5.01984 17.42 4.80984 17.51 4.59984 17.51Z" fill="#212121"/>
<path d="M10.9996 20.02C9.66957 20.02 8.36957 19.75 7.11957 19.22C6.73957 19.06 6.55957 18.62 6.71957 18.24C6.87957 17.86 7.31957 17.68 7.69957 17.84C8.75957 18.29 9.86957 18.52 10.9896 18.52C14.2196 18.52 17.3096 16.58 19.4696 13.19C20.2196 12.02 20.2196 9.98 19.4696 8.81C19.1596 8.32 18.8196 7.85 18.4596 7.41C18.1996 7.09 18.2496 6.62 18.5696 6.35C18.8896 6.09 19.3596 6.13 19.6296 6.46C20.0196 6.94 20.3996 7.46 20.7396 8C21.7996 9.65 21.7996 12.34 20.7396 14C18.2996 17.82 14.7496 20.02 10.9996 20.02Z" fill="#212121"/>
<path d="M11.6896 15.2701C11.3396 15.2701 11.0196 15.0201 10.9496 14.6601C10.8696 14.2501 11.1396 13.8601 11.5496 13.7901C12.6496 13.5901 13.5696 12.6701 13.7696 11.5701C13.8496 11.1601 14.2396 10.9001 14.6496 10.9701C15.0596 11.0501 15.3296 11.4401 15.2496 11.8501C14.9296 13.5801 13.5496 14.9501 11.8296 15.2701C11.7796 15.2601 11.7396 15.2701 11.6896 15.2701Z" fill="#212121"/>
<path d="M1.00043 21.75C0.81043 21.75 0.62043 21.68 0.47043 21.53C0.18043 21.24 0.18043 20.76 0.47043 20.47L7.94043 13C8.23043 12.71 8.71043 12.71 9.00043 13C9.29043 13.29 9.29043 13.77 9.00043 14.06L1.53043 21.53C1.38043 21.68 1.19043 21.75 1.00043 21.75Z" fill="#212121"/>
<path d="M13.5297 9.21994C13.3397 9.21994 13.1497 9.14994 12.9997 8.99994C12.7097 8.70994 12.7097 8.22994 12.9997 7.93994L20.4697 0.469941C20.7597 0.179941 21.2397 0.179941 21.5297 0.469941C21.8197 0.759941 21.8197 1.23994 21.5297 1.52994L14.0597 8.99994C13.9097 9.14994 13.7197 9.21994 13.5297 9.21994Z" fill="#212121"/>
</svg>
