<svg width="32" height="32" viewBox="0 0 32 32" fill="none" xmlns="http://www.w3.org/2000/svg">
<g clip-path="url(#clip0_45_12)">
<path fill-rule="evenodd" clip-rule="evenodd" d="M28 9V28C28 29.0609 27.5786 30.0783 26.8284 30.8284C26.0783 31.5786 25.0609 32 24 32V30C24.5304 30 25.0391 29.7893 25.4142 29.4142C25.7893 29.0391 26 28.5304 26 28V9H22C21.2044 9 20.4413 8.68393 19.8787 8.12132C19.3161 7.55871 19 6.79565 19 6V2H8C7.46957 2 6.96086 2.21071 6.58579 2.58579C6.21071 2.96086 6 3.46957 6 4V22H4V4C4 2.93913 4.42143 1.92172 5.17157 1.17157C5.92172 0.421427 6.93913 0 8 0L19 0L28 9ZM12.322 27.332V28.376C12.322 28.888 12.244 29.3153 12.088 29.658C11.9553 29.9745 11.7311 30.244 11.444 30.432C11.1603 30.6004 10.8359 30.6875 10.506 30.684C10.1748 30.6883 9.84883 30.6011 9.564 30.432C9.27953 30.243 9.05695 29.9746 8.924 29.66C8.75577 29.2535 8.676 28.8158 8.69 28.376V27.332C8.69 26.8173 8.768 26.39 8.924 26.05C9.05662 25.7347 9.27923 25.4655 9.564 25.276C9.84693 25.1018 10.1738 25.0123 10.506 25.018C10.858 25.018 11.1707 25.1047 11.444 25.278C11.7308 25.4655 11.955 25.7343 12.088 26.05C12.244 26.39 12.322 26.8173 12.322 27.332ZM13.928 28.37V27.344C13.928 26.5907 13.7913 25.9427 13.518 25.4C13.2612 24.871 12.8506 24.4318 12.34 24.14C11.832 23.8467 11.2207 23.7 10.506 23.7C9.79533 23.7 9.182 23.8467 8.666 24.14C8.15473 24.4282 7.74372 24.8657 7.488 25.394C7.216 25.9353 7.07933 26.5853 7.078 27.344V28.37C7.078 29.1207 7.21467 29.7693 7.488 30.316C7.76133 30.8573 8.15467 31.2753 8.668 31.57C9.18267 31.858 9.796 32.002 10.508 32.002C11.2213 32.002 11.832 31.858 12.34 31.57C12.8507 31.2767 13.244 30.8587 13.52 30.316C13.792 29.7693 13.928 29.1207 13.928 28.37ZM0 23.852V31.852H2.918C3.722 31.852 4.388 31.6933 4.916 31.376C5.45031 31.0563 5.86755 30.5732 6.106 29.998C6.36733 29.398 6.498 28.6753 6.498 27.83C6.498 26.99 6.36733 26.2733 6.106 25.68C5.86935 25.1114 5.4555 24.6345 4.926 24.32C4.39933 24.008 3.73 23.852 2.918 23.852H0ZM1.582 25.142H2.708C3.20267 25.142 3.60867 25.2433 3.926 25.446C4.25505 25.663 4.50378 25.982 4.634 26.354C4.79133 26.7567 4.87 27.2587 4.87 27.86C4.8762 28.2589 4.83048 28.6569 4.734 29.044C4.66501 29.3501 4.53135 29.6378 4.342 29.888C4.16799 30.1123 3.93743 30.2862 3.674 30.392C3.3653 30.5074 3.03748 30.563 2.708 30.556H1.58V25.14L1.582 25.142ZM16.426 26.108C16.2776 26.5131 16.2077 26.9428 16.22 27.374V28.364C16.22 28.856 16.2887 29.274 16.426 29.618C16.5404 29.9343 16.7483 30.2084 17.022 30.404C17.3076 30.5844 17.6404 30.6756 17.978 30.666C18.2553 30.6699 18.5298 30.6097 18.78 30.49C19.0031 30.3764 19.1916 30.2052 19.326 29.994C19.4617 29.7738 19.542 29.524 19.56 29.266H21.09V29.418C21.0707 29.9012 20.9139 30.3689 20.638 30.766C20.3647 31.1527 19.998 31.4553 19.538 31.674C19.0454 31.9003 18.508 32.0124 17.966 32.002C17.246 32.002 16.6367 31.858 16.138 31.57C15.6368 31.2801 15.2379 30.842 14.996 30.316C14.7373 29.772 14.608 29.1213 14.608 28.364V27.368C14.608 26.6107 14.7393 25.9587 15.002 25.412C15.262 24.864 15.6427 24.442 16.144 24.146C16.648 23.8487 17.2553 23.7 17.966 23.7C18.4033 23.7 18.808 23.7647 19.18 23.894C19.5533 24.018 19.8793 24.1993 20.158 24.438C20.4385 24.6772 20.6661 24.9722 20.8266 25.3041C20.987 25.636 21.0767 25.9976 21.09 26.366V26.512H19.56C19.5414 26.2432 19.4591 25.9827 19.32 25.752C19.1893 25.5313 19.0004 25.3507 18.774 25.23C18.53 25.0973 18.2557 25.0305 17.978 25.036C17.6401 25.0253 17.3076 25.122 17.028 25.312C16.7539 25.5129 16.5446 25.7896 16.426 26.108Z" fill="black"/>
</g>
<defs>
<clipPath id="clip0_45_12">
<rect width="32" height="32" fill="white"/>
</clipPath>
</defs>
</svg>
