<svg width="32" height="32" viewBox="0 0 32 32" fill="none" xmlns="http://www.w3.org/2000/svg">
<g clip-path="url(#clip0_45_14)">
<path fill-rule="evenodd" clip-rule="evenodd" d="M28 9V22H26V9H22C21.2044 9 20.4413 8.68393 19.8787 8.12132C19.3161 7.55871 19 6.79565 19 6V2H8C7.46957 2 6.96086 2.21071 6.58579 2.58579C6.21071 2.96086 6 3.46957 6 4V22H4V4C4 2.93913 4.42143 1.92172 5.17157 1.17157C5.92172 0.421427 6.93913 0 8 0L19 0L28 9ZM14.322 28.376V27.332C14.3389 26.8927 14.259 26.455 14.088 26.05C13.9553 25.7335 13.7311 25.464 13.444 25.276C13.1627 25.1015 12.837 25.0119 12.506 25.018C12.1736 25.0129 11.8467 25.1031 11.564 25.278C11.2795 25.467 11.057 25.7354 10.924 26.05C10.753 26.455 10.6731 26.8927 10.69 27.332V28.376C10.69 28.888 10.768 29.3153 10.924 29.658C11.0566 29.9733 11.2792 30.2425 11.564 30.432C11.8488 30.6011 12.1748 30.6883 12.506 30.684C12.8359 30.6875 13.1603 30.6004 13.444 30.432C13.7308 30.2445 13.955 29.9757 14.088 29.66C14.2562 29.2535 14.336 28.8158 14.322 28.376ZM15.928 27.344V28.37C15.928 29.1207 15.7913 29.7693 15.518 30.316C15.2592 30.8421 14.8489 31.2788 14.34 31.57C13.832 31.858 13.2207 32.002 12.506 32.002C11.8657 32.0188 11.2319 31.87 10.666 31.57C10.1563 31.2798 9.74581 30.8428 9.488 30.316C9.20115 29.7083 9.06073 29.0418 9.078 28.37V27.344C9.078 26.5853 9.21467 25.9353 9.488 25.394C9.76133 24.846 10.1547 24.428 10.668 24.14C11.1827 23.8467 11.796 23.7 12.508 23.7C13.2213 23.7 13.832 23.8467 14.34 24.14C14.8507 24.432 15.244 24.852 15.52 25.4C15.792 25.9413 15.928 26.5893 15.928 27.344ZM2 31.85V23.852H4.918C5.73 23.852 6.4 24.0087 6.928 24.322C7.456 24.6327 7.84867 25.086 8.106 25.682C8.36733 26.2753 8.498 26.9913 8.498 27.83C8.498 28.6753 8.36733 29.398 8.106 29.998C7.84333 30.5993 7.44667 31.0587 6.916 31.376C6.388 31.692 5.722 31.85 4.918 31.85H2ZM4.708 25.142H3.58V30.556H4.706C5.07533 30.556 5.39733 30.5013 5.672 30.392C5.93543 30.2862 6.16599 30.1123 6.34 29.888C6.516 29.6613 6.64667 29.38 6.732 29.044C6.82848 28.6569 6.8742 28.2589 6.868 27.86C6.868 27.26 6.78933 26.758 6.632 26.354C6.50178 25.982 6.25305 25.663 5.924 25.446C5.608 25.2433 5.20133 25.142 4.704 25.142H4.708ZM18.22 27.374C18.22 26.8767 18.2887 26.4547 18.426 26.108C18.5446 25.7896 18.7539 25.5129 19.028 25.312C19.3076 25.122 19.6401 25.0253 19.978 25.036C20.278 25.036 20.5433 25.1007 20.774 25.23C21.0001 25.3501 21.189 25.53 21.32 25.75C21.4594 25.9813 21.5417 26.2425 21.56 26.512H23.09V26.366C23.0767 25.9976 22.987 25.636 22.8266 25.3041C22.6661 24.9722 22.4385 24.6772 22.158 24.438C21.8713 24.1925 21.538 24.0074 21.178 23.894C20.7881 23.7604 20.3781 23.6948 19.966 23.7C19.254 23.7 18.6467 23.8487 18.144 24.146C17.644 24.442 17.2633 24.864 17.002 25.412C16.7393 25.9587 16.608 26.6107 16.608 27.368V28.364C16.608 29.1213 16.7373 29.772 16.996 30.316C17.256 30.8573 17.6367 31.2753 18.138 31.57C18.638 31.858 19.2473 32.002 19.966 32.002C20.5527 32.002 21.076 31.8927 21.536 31.674C21.996 31.4553 22.3633 31.1527 22.638 30.766C22.9139 30.3689 23.0707 29.9012 23.09 29.418V29.266H21.56C21.542 29.524 21.4617 29.7738 21.326 29.994C21.1916 30.2052 21.0031 30.3764 20.78 30.49C20.5298 30.6097 20.2553 30.6699 19.978 30.666C19.6404 30.6756 19.3076 30.5844 19.022 30.404C18.7483 30.2084 18.5404 29.9343 18.426 29.618C18.2791 29.2167 18.2092 28.7912 18.22 28.364V27.374ZM28.404 23.854H30.192L27.642 27.866L30.15 31.85H28.334L26.634 29.02H26.564L24.86 31.85H23.136L25.616 27.82L23.16 23.852H25.024L26.688 26.73H26.758L28.404 23.854Z" fill="black"/>
</g>
<defs>
<clipPath id="clip0_45_14">
<rect width="32" height="32" fill="white"/>
</clipPath>
</defs>
</svg>
